<?xml version="1.0" standalone="no"?>
<!DOCTYPE svg PUBLIC "-//W3C//DTD SVG 20010904//EN"
 "http://www.w3.org/TR/2001/REC-SVG-20010904/DTD/svg10.dtd">
<svg version="1.0" xmlns="http://www.w3.org/2000/svg"
 width="631.000000pt" height="631.000000pt" viewBox="0 0 631.000000 631.000000"
 preserveAspectRatio="xMidYMid meet">
<metadata>
Created by potrace 1.14, written by Peter Selinger 2001-2017
</metadata>
<g transform="translate(0.000000,631.000000) scale(0.100000,-0.100000)"
fill="#000000" stroke="none">
<path d="M0 3155 l0 -3155 3155 0 3155 0 0 3155 0 3155 -3155 0 -3155 0 0
-3155z m1457 3089 c35 -54 43 -137 43 -466 l0 -318 115 0 115 0 0 328 c0 350
8 424 51 467 25 25 46 14 74 -41 19 -36 20 -64 25 -394 l5 -355 113 -3 112 -3
0 303 c0 167 4 331 9 366 27 183 111 184 140 2 6 -36 11 -201 11 -368 l0 -303
113 3 112 3 5 355 c4 296 8 361 21 390 34 76 68 76 102 3 21 -46 22 -62 25
-400 l3 -353 115 0 114 0 0 318 c0 329 8 412 43 466 26 39 53 33 79 -16 22
-42 23 -51 26 -383 1 -187 4 -350 7 -362 5 -22 9 -23 115 -23 l110 0 0 278 c0
152 5 317 10 365 17 144 64 206 107 141 35 -54 43 -137 43 -466 l0 -318 114 0
115 0 3 353 c3 338 4 354 25 400 34 73 68 73 102 -3 13 -29 17 -94 21 -390 l5
-355 112 -3 111 -3 4 343 c4 310 6 348 23 397 35 95 75 95 110 0 17 -49 19
-87 23 -397 l4 -343 111 3 112 3 5 355 c4 296 8 361 21 390 34 76 68 76 102 3
21 -46 22 -62 25 -400 l3 -353 115 0 114 0 0 318 c0 329 8 412 43 466 43 65
90 3 107 -141 5 -48 10 -213 10 -365 l0 -277 173 -3 c168 -3 175 -4 213 -29
22 -14 53 -46 69 -69 l30 -43 3 -174 3 -173 277 0 c152 0 317 -5 365 -10 194
-22 226 -97 59 -136 -41 -10 -145 -14 -379 -14 l-323 0 0 -114 0 -115 353 -3
c338 -3 354 -4 400 -25 73 -34 73 -68 -3 -102 -29 -13 -94 -17 -390 -21 l-355
-5 -3 -112 -3 -111 343 -4 c310 -4 348 -6 397 -23 30 -11 59 -28 65 -37 17
-28 -4 -50 -65 -73 -49 -17 -87 -19 -397 -23 l-343 -4 3 -111 3 -112 355 -5
c296 -4 361 -8 390 -21 76 -34 76 -68 3 -102 -46 -21 -62 -22 -400 -25 l-353
-3 0 -115 0 -114 318 0 c329 0 412 -8 466 -43 66 -43 3 -91 -141 -106 -48 -5
-209 -10 -358 -10 -148 0 -274 0 -278 -1 -4 0 -6 -50 -5 -112 l3 -112 328 -2
c180 -2 342 -5 360 -9 96 -18 140 -62 97 -97 -46 -38 -86 -42 -442 -45 l-348
-4 0 -114 0 -114 353 -3 c338 -3 354 -4 400 -25 73 -34 73 -68 -3 -102 -29
-13 -94 -17 -390 -21 l-355 -5 -3 -112 -3 -113 303 0 c167 0 332 -5 368 -11
182 -29 181 -113 -2 -140 -35 -5 -199 -9 -366 -9 l-303 0 3 -112 3 -113 350
-5 c355 -6 397 -10 436 -46 39 -35 12 -66 -76 -89 -48 -12 -124 -15 -387 -15
l-328 0 0 -115 0 -115 314 0 c317 0 391 -6 455 -38 85 -41 26 -95 -122 -112
-45 -6 -209 -10 -364 -10 l-282 0 -3 -173 c-3 -170 -4 -174 -31 -215 -15 -23
-46 -54 -69 -69 -41 -27 -45 -28 -215 -31 l-173 -3 0 -277 c0 -152 -5 -317
-10 -365 -17 -144 -64 -206 -107 -141 -35 54 -43 137 -43 467 l0 318 -112 -3
-113 -3 -5 -350 c-5 -334 -6 -352 -27 -398 -34 -73 -68 -73 -102 3 -13 29 -17
94 -21 390 l-5 355 -112 3 -113 3 0 -303 c0 -167 -5 -332 -11 -368 -13 -87
-39 -135 -70 -135 -31 0 -54 46 -68 135 -6 36 -11 201 -11 368 l0 303 -112 -3
-113 -3 -5 -355 c-5 -330 -6 -358 -25 -394 -27 -53 -48 -65 -73 -43 -41 37
-45 77 -51 442 l-6 350 -112 3 -113 3 0 -318 c0 -330 -8 -413 -43 -467 -43
-65 -90 -3 -107 141 -5 48 -10 213 -10 366 l0 277 -110 0 c-106 0 -110 -1
-115 -22 -3 -13 -6 -176 -7 -363 -3 -313 -5 -343 -22 -377 -25 -48 -53 -58
-78 -28 -37 46 -41 87 -45 443 l-4 348 -112 -3 -112 -3 -5 -350 c-5 -334 -6
-352 -27 -398 -34 -73 -68 -73 -102 3 -13 29 -17 94 -21 390 l-5 355 -112 3
-113 3 0 -303 c0 -167 -5 -332 -11 -368 -28 -180 -110 -182 -139 -3 -6 32 -10
197 -10 366 l0 308 -112 -3 -113 -3 -5 -355 c-5 -330 -6 -358 -25 -394 -27
-54 -48 -65 -74 -42 -40 36 -44 78 -50 441 l-6 350 -112 2 -113 1 0 -313 c0
-316 -6 -390 -38 -454 -42 -87 -96 -25 -113 128 -5 47 -9 211 -9 363 l0 277
-173 3 c-170 3 -174 4 -215 31 -23 15 -54 46 -69 69 -27 41 -28 45 -31 215
l-3 173 -282 0 c-155 0 -319 4 -364 10 -138 15 -201 65 -137 107 54 35 137 43
467 43 l317 0 0 115 0 115 -327 0 c-352 0 -426 8 -467 49 -26 27 -15 48 40 76
36 19 64 20 394 25 l355 5 3 112 3 112 -343 3 c-311 3 -348 5 -397 23 -30 11
-59 28 -65 37 -17 28 4 50 65 73 49 17 87 19 397 23 l343 4 -3 111 -3 112
-355 5 c-296 4 -361 8 -390 21 -76 34 -76 68 -3 102 46 21 62 22 401 25 l353
3 -2 97 c-1 53 -4 105 -7 114 -4 15 -35 17 -346 21 -349 3 -390 8 -436 45 -30
25 -20 53 28 77 33 17 71 20 377 26 187 4 348 7 358 8 15 1 17 13 17 111 l0
110 -47 0 c-27 0 -156 1 -288 1 -270 0 -366 9 -425 39 -72 37 -44 80 68 106
41 10 145 14 380 14 l322 0 0 115 0 115 -328 0 c-350 0 -424 8 -467 51 -25 25
-14 46 41 74 36 19 62 20 389 23 256 2 352 6 357 15 4 7 8 58 8 114 l0 101
-342 4 c-310 4 -348 6 -397 23 -30 11 -59 28 -65 38 -17 27 4 49 65 72 49 17
87 19 397 23 l342 4 0 101 c0 56 -4 107 -8 114 -5 9 -101 13 -357 15 -327 3
-353 4 -389 23 -55 28 -66 49 -41 74 43 43 117 51 467 51 l328 0 0 115 0 115
-322 0 c-334 0 -407 7 -463 44 -67 44 0 90 152 106 54 6 217 10 363 10 l265
-1 5 174 c5 169 6 175 33 215 15 23 46 54 69 69 41 27 45 28 215 31 l173 3 0
282 c0 155 4 319 10 364 15 138 65 201 107 137z"/>
<path d="M1513 5145 c-85 -19 -157 -59 -223 -125 -67 -67 -106 -138 -125 -227
-22 -100 -22 -3164 -1 -3264 20 -92 59 -163 125 -229 69 -68 139 -106 228
-125 102 -22 3164 -22 3266 0 89 19 160 58 227 125 67 67 106 138 125 227 22
102 22 3164 0 3266 -19 89 -58 160 -125 227 -67 67 -138 106 -227 125 -98 21
-3175 21 -3270 0z m3293 -169 c73 -34 123 -83 156 -151 l28 -60 0 -1605 0
-1605 -26 -55 c-34 -73 -76 -116 -149 -151 l-60 -29 -1600 0 c-1825 0 -1656
-9 -1755 90 -99 99 -90 -69 -90 1750 0 1495 1 1598 17 1644 25 69 85 133 158
167 l60 29 1605 0 1605 0 51 -24z"/>
<path d="M3570 4795 c-8 -2 -49 -9 -90 -15 -274 -44 -509 -196 -665 -428 l-45
-67 0 223 0 222 -240 0 -240 0 0 -1455 0 -1455 240 0 240 0 0 823 c0 842 1
870 26 1019 28 168 73 279 168 417 63 92 147 163 251 213 128 61 216 79 385
81 158 1 240 -13 339 -58 29 -14 55 -25 58 -25 2 0 2 109 -1 242 l-5 243 -28
8 c-28 9 -364 19 -393 12z"/>
<path d="M1630 1675 c0 -8 5 -15 10 -15 6 0 10 7 10 15 0 8 -4 15 -10 15 -5 0
-10 -7 -10 -15z"/>
<path d="M1680 1680 c0 -5 5 -10 10 -10 15 0 13 -143 -2 -158 -9 -9 -5 -12 20
-12 29 0 31 2 20 19 -9 15 -9 23 1 35 12 14 15 13 33 -9 11 -14 16 -29 13 -35
-4 -6 5 -10 20 -10 l26 0 -33 41 -33 41 28 23 c34 30 34 35 1 35 -18 0 -25 -4
-21 -14 3 -8 -5 -24 -19 -37 l-24 -22 0 61 c0 55 -2 62 -20 62 -11 0 -20 -4
-20 -10z"/>
<path d="M2386 1683 c-11 -11 -6 -23 9 -23 8 0 15 4 15 9 0 13 -16 22 -24 14z"/>
<path d="M3380 1680 c0 -5 5 -10 10 -10 6 0 10 -8 10 -18 0 -15 -6 -17 -37
-14 -44 5 -63 -15 -63 -66 0 -52 15 -72 55 -72 47 0 54 18 8 22 -38 3 -38 3
-38 48 0 45 0 45 38 48 l37 3 0 -45 c0 -24 3 -51 6 -60 7 -17 34 -22 34 -6 0
6 -4 10 -10 10 -6 0 -10 35 -10 85 0 78 -2 85 -20 85 -11 0 -20 -4 -20 -10z"/>
<path d="M1850 1661 c0 -11 -6 -22 -12 -24 -10 -4 -10 -7 -1 -14 6 -5 13 -33
15 -63 3 -51 5 -55 28 -55 20 0 26 6 28 28 2 15 -1 27 -7 27 -6 0 -11 -9 -11
-20 0 -11 -4 -20 -10 -20 -5 0 -10 23 -10 50 0 43 3 50 20 50 11 0 20 5 20 10
0 6 -9 10 -20 10 -13 0 -20 7 -20 20 0 11 -4 20 -10 20 -5 0 -10 -9 -10 -19z"/>
<path d="M1500 1630 c0 -5 5 -10 10 -10 6 0 10 -22 10 -50 0 -27 -4 -50 -10
-50 -5 0 -10 -4 -10 -10 0 -5 15 -10 33 -10 29 1 30 2 15 14 -33 25 -14 112
22 103 13 -3 20 0 20 9 0 17 -32 18 -48 2 -9 -9 -12 -9 -12 0 0 7 -7 12 -15
12 -8 0 -15 -4 -15 -10z"/>
<path d="M1610 1630 c0 -5 5 -10 10 -10 14 0 12 -94 -2 -108 -9 -9 -4 -12 22
-12 26 0 31 3 22 12 -7 7 -12 38 -12 70 0 51 -2 58 -20 58 -11 0 -20 -4 -20
-10z"/>
<path d="M1930 1630 c0 -5 5 -10 10 -10 6 0 10 -22 10 -50 0 -27 -4 -50 -10
-50 -5 0 -10 -4 -10 -10 0 -5 15 -10 33 -10 29 1 30 2 15 14 -33 25 -14 112
22 103 13 -3 20 0 20 9 0 17 -32 18 -48 2 -9 -9 -12 -9 -12 0 0 7 -7 12 -15
12 -8 0 -15 -4 -15 -10z"/>
<path d="M2060 1621 c-5 -11 -10 -34 -10 -51 0 -51 16 -70 58 -70 50 0 62 14
62 70 0 56 -12 70 -62 70 -27 0 -40 -5 -48 -19z m81 -1 c5 0 9 -22 9 -50 l0
-50 -40 0 -40 0 0 49 c0 50 13 65 48 55 8 -2 18 -4 23 -4z"/>
<path d="M2200 1630 c0 -5 5 -10 10 -10 6 0 10 -22 10 -50 0 -27 -4 -50 -10
-50 -5 0 -10 -4 -10 -10 0 -5 15 -10 33 -10 30 1 31 2 13 15 -15 11 -17 22
-12 54 3 22 3 47 0 55 -7 17 -34 22 -34 6z"/>
<path d="M2240 1629 c0 -5 8 -9 18 -8 53 5 55 3 50 -61 -4 -57 -3 -60 19 -60
13 0 23 5 23 10 0 6 -4 10 -10 10 -5 0 -10 22 -10 48 0 26 -5 53 -12 60 -15
15 -78 16 -78 1z"/>
<path d="M2370 1630 c0 -5 5 -10 10 -10 6 0 10 -22 10 -50 0 -27 -4 -50 -10
-50 -5 0 -10 -4 -10 -10 0 -5 15 -10 33 -10 29 1 30 2 15 14 -14 10 -18 28
-18 70 0 43 -3 56 -15 56 -8 0 -15 -4 -15 -10z"/>
<path d="M2460 1621 c-14 -27 -13 -84 3 -105 19 -26 91 -19 95 9 2 15 1 16 -6
7 -5 -8 -23 -12 -43 -10 -33 3 -34 5 -37 49 -3 42 -1 47 20 51 34 6 58 -2 58
-18 0 -8 4 -14 10 -14 5 0 9 11 8 23 -2 21 -8 24 -50 26 -38 1 -49 -3 -58 -18z"/>
<path d="M2611 1626 c-23 -28 -9 -50 39 -62 28 -7 46 -17 48 -27 5 -27 -65
-26 -85 1 -11 14 -13 13 -13 -9 0 -23 4 -26 49 -28 41 -2 52 2 60 18 14 25 14
27 -5 45 -8 9 -29 16 -45 16 -25 0 -51 23 -38 34 18 16 50 15 68 -3 l21 -21 0
23 c0 20 -5 24 -43 26 -29 1 -48 -3 -56 -13z"/>
<path d="M2800 1630 c0 -5 4 -10 8 -10 5 0 16 -27 25 -60 21 -74 40 -78 60
-12 l14 47 13 -48 c17 -63 39 -60 58 8 8 28 21 58 30 68 14 16 13 17 -18 17
-25 0 -30 -3 -22 -13 11 -12 -3 -86 -19 -101 -3 -4 -12 19 -19 49 -7 31 -17
58 -21 61 -8 4 -10 -1 -30 -76 l-12 -45 -14 40 c-7 22 -11 50 -8 63 4 18 1 22
-20 22 -14 0 -25 -4 -25 -10z"/>
<path d="M3040 1621 c-5 -11 -10 -34 -10 -51 0 -51 16 -70 58 -70 50 0 62 14
62 70 0 56 -12 70 -62 70 -27 0 -40 -5 -48 -19z m90 -53 l0 -49 -37 3 c-38 3
-38 4 -41 50 -3 42 -1 47 20 50 49 8 58 -1 58 -54z"/>
<path d="M3180 1630 c0 -5 5 -10 10 -10 14 0 12 -94 -2 -108 -9 -9 -4 -12 22
-12 26 0 31 3 22 12 -7 7 -12 28 -12 48 0 50 -10 80 -26 80 -8 0 -14 -4 -14
-10z"/>
<path d="M3227 1633 c-13 -13 -7 -18 23 -18 17 0 30 5 30 13 0 12 -42 17 -53
5z"/>
<path d="M3450 1629 c0 -5 5 -9 10 -9 15 0 13 -157 -2 -163 -7 -3 3 -6 22 -6
26 -1 31 2 22 11 -7 7 -12 19 -12 28 0 12 8 15 35 12 19 -2 42 1 50 8 19 16
20 103 2 118 -16 13 -127 14 -127 1z m124 -34 c4 -14 3 -36 0 -51 -6 -22 -11
-25 -43 -22 -33 3 -36 6 -39 36 -5 50 3 62 42 62 28 0 35 -4 40 -25z"/>
<path d="M3620 1630 c0 -5 5 -10 10 -10 14 0 12 -94 -2 -108 -9 -9 -5 -12 20
-12 18 0 32 5 32 10 0 6 -4 10 -10 10 -5 0 -10 17 -10 38 0 52 -10 82 -26 82
-8 0 -14 -4 -14 -10z"/>
<path d="M3667 1633 c-13 -13 -7 -18 23 -18 17 0 30 5 30 13 0 12 -42 17 -53
5z"/>
<path d="M3750 1621 c-5 -11 -10 -34 -10 -51 0 -52 16 -70 60 -70 29 0 42 5
50 20 7 14 7 20 0 20 -5 0 -10 -5 -10 -11 0 -6 -16 -9 -37 -7 -31 2 -39 7 -41
26 -3 20 0 22 47 22 54 0 62 10 41 51 -8 14 -21 19 -50 19 -29 0 -42 -5 -50
-19z m71 -1 c34 -19 23 -40 -21 -40 -41 0 -52 14 -28 38 15 15 24 15 49 2z"/>
<path d="M3907 1634 c-4 -4 -7 -18 -7 -30 0 -26 26 -44 64 -44 19 0 26 -5 26
-19 0 -11 -8 -21 -17 -23 -30 -6 -63 4 -63 18 0 8 -4 14 -10 14 -5 0 -10 -11
-10 -23 0 -21 5 -24 46 -26 51 -1 74 11 74 40 0 22 -14 31 -59 38 -41 7 -50
25 -21 41 26 14 57 5 63 -18 3 -11 5 -7 6 9 1 23 -3 25 -42 27 -24 2 -46 0
-50 -4z"/>
<path d="M4063 1633 c-20 -7 -15 -51 6 -63 11 -5 31 -10 45 -10 19 0 26 -5 26
-20 0 -29 -55 -31 -77 -2 -11 14 -13 13 -13 -9 0 -21 5 -25 36 -27 52 -4 74 6
74 32 0 31 -19 46 -57 46 -26 0 -33 4 -33 19 0 10 7 22 16 25 23 9 54 -2 54
-20 0 -8 5 -14 10 -14 6 0 10 11 10 25 0 23 -4 25 -42 24 -24 0 -49 -3 -55 -6z"/>
<path d="M4270 1621 c-14 -27 -13 -84 3 -105 19 -26 91 -19 95 9 2 15 1 16 -6
7 -5 -8 -23 -12 -43 -10 -33 3 -34 5 -37 49 -3 42 -1 47 20 51 34 6 58 -2 58
-18 0 -8 4 -14 9 -14 5 0 9 11 9 23 0 22 -5 24 -49 26 -39 1 -50 -3 -59 -18z"/>
<path d="M4420 1621 c-5 -11 -10 -34 -10 -51 0 -51 16 -70 58 -70 50 0 62 14
62 70 0 56 -12 70 -62 70 -27 0 -40 -5 -48 -19z m81 -1 c5 0 9 -23 9 -51 l0
-50 -37 3 c-38 3 -38 4 -41 50 -3 47 10 62 46 52 8 -2 18 -4 23 -4z"/>
<path d="M4560 1630 c0 -5 5 -10 10 -10 14 0 12 -94 -2 -108 -9 -9 -4 -12 22
-12 26 0 31 3 22 12 -7 7 -12 28 -12 48 0 50 -10 80 -26 80 -8 0 -14 -4 -14
-10z"/>
<path d="M4607 1633 c-15 -14 -6 -19 24 -15 l32 5 -5 -62 c-4 -58 -3 -61 19
-61 13 0 23 5 23 10 0 6 -4 10 -10 10 -16 0 -12 77 6 94 27 28 54 3 54 -49 0
-25 -4 -45 -10 -45 -5 0 -10 -4 -10 -10 0 -5 14 -10 32 -10 25 0 29 3 20 12
-7 7 -12 27 -12 44 0 56 -16 84 -48 84 -15 0 -33 -5 -39 -11 -8 -8 -13 -8 -17
0 -8 12 -49 15 -59 4z"/>
<path d="M2757 1523 c-12 -11 -8 -23 8 -23 8 0 15 7 15 15 0 16 -12 20 -23 8z"/>
<path d="M4197 1523 c-12 -11 -8 -23 8 -23 8 0 15 7 15 15 0 16 -12 20 -23 8z"/>
</g>
</svg>
